<?xml version="1.0" encoding="UTF-8"?>
<svg width="128" height="128" version="1.1" viewBox="0 0 33.867 33.867" xmlns="http://www.w3.org/2000/svg" xmlns:cc="http://creativecommons.org/ns#" xmlns:dc="http://purl.org/dc/elements/1.1/">
<g transform="translate(0 -263.13)">
<path transform="matrix(.26458 0 0 .26458 0 263.13)" d="m0 0v128h128v-128h-128zm29.121 6.0605h10.176a40 40 0 0 1-33.488 33.105v-10.133a30 30 0 0 0 23.313-22.973zm20.248 0h10.049a60 60 0 0 1-53.609 53.307v-10.123a50 50 0 0 0 43.561-43.184zm20.141 0h10.029a80 80 0 0 1-73.73 73.307v-10.002a70 70 0 0 0 63.701-63.305zm20 0h10.094a100 100 0 0 1-93.795 93.307v-9.9121a90 90 0 0 0 83.701-83.395zm20 0h10.094a120 120 0 0 1-113.79 113.31v-9.9121a110 110 0 0 0 103.7-103.39z"/>
</g>
</svg>
