<?xml version="1.0" encoding="UTF-8"?>
<svg width="75" height="75" version="1.1" viewBox="0 0 19.844 19.844" xml:space="preserve" xmlns="http://www.w3.org/2000/svg">
	<circle cx="9.922" cy="9.8925" r="7.9375" fill="#005daa" stroke-linecap="round" stroke-width=".49236"/>
	<g transform="translate(.15134 .38683)" font-family="sans-serif" font-size="26.012px" letter-spacing="0px" stroke-width="1.3935" word-spacing="0px">
		<g fill="#4d4d4d" aria-label="γ">
			<path d="m12.832 1.0607h2.6164l-5.0932 10.682q0.19052 1.7147 0.19052 2.9975 0 3.569-1.3336 3.569-0.96529 0-0.96529-1.4987 0-1.956 1.4225-4.9027-0.27943-1.829-0.78747-4.4073-0.49535-2.5783-1.0288-3.696-0.52075-1.1177-1.4987-1.1177-1.6003 0-1.7147 2.3878h-0.45724q0-4.1914 2.4894-4.1914 1.4352 0 2.1338 1.702 0.69856 1.6893 1.4352 7.3667z"/>
		</g>
		<g fill="#ef3e42" aria-label="γ">
			<path d="m12.742 0.93927h2.6164l-5.0932 10.682q0.19052 1.7147 0.19052 2.9975 0 3.569-1.3336 3.569-0.96529 0-0.96529-1.4987 0-1.956 1.4225-4.9027-0.27943-1.829-0.78747-4.4073-0.49535-2.5783-1.0288-3.696-0.52075-1.1177-1.4987-1.1177-1.6003 0-1.7147 2.3878h-0.45724q0-4.1914 2.4894-4.1914 1.4352 0 2.1338 1.702 0.69856 1.6893 1.4352 7.3667z"/>
		</g>
	</g>
	<path d="m6.7796 6.5968-0.106-0.38748-0.39231-0.086502 0.38748-0.106 0.086502-0.3923 0.106 0.38748 0.3923 0.086502-0.38748 0.106z" fill="#fff" stroke-linecap="round" stroke-width=".20505"/>
	<path d="m5.6611 6.8791-0.061547-0.22499-0.22779-0.050227 0.22499-0.061546 0.050227-0.22779 0.061547 0.22499 0.22779 0.050227-0.22499 0.061547z" fill="#fff" stroke-linecap="round" stroke-width=".11906"/>
	<path d="m5.9434 5.2168-0.061547-0.22499-0.22779-0.050227 0.22499-0.061546 0.050227-0.22779 0.061547 0.22499 0.22779 0.050227-0.22499 0.061546z" fill="#fff" stroke-linecap="round" stroke-width=".11906"/>
	<path d="m6.8529 7.9454-0.061546-0.22499-0.22779-0.050227 0.22499-0.061546 0.050227-0.22779 0.061546 0.22499 0.22779 0.050227-0.22499 0.061547z" fill="#fff" stroke-linecap="round" stroke-width=".11906"/>
	<path d="m13.89 14.069-0.06155-0.22499-0.22779-0.05023 0.22499-0.06155 0.05023-0.22779 0.06155 0.22499 0.22779 0.05023-0.22499 0.06155z" fill="#fff" stroke-linecap="round" stroke-width=".11906"/>
	<path d="m12.573 14.602-0.06155-0.22499-0.22779-0.05023 0.22499-0.06155 0.05023-0.22779 0.06155 0.22499 0.22779 0.05023-0.22499 0.06155z" fill="#fff" stroke-linecap="round" stroke-width=".11906"/>
	<path d="m14.047 12.438-0.06155-0.22499-0.22779-0.05023 0.22499-0.06155 0.05023-0.22779 0.06155 0.22499 0.22779 0.05023-0.22499 0.06155z" fill="#fff" stroke-linecap="round" stroke-width=".11906"/>
	<path d="m14.141 13.536-0.06155-0.22499-0.22779-0.05023 0.22499-0.06155 0.05023-0.22779 0.06155 0.22499 0.22779 0.05023-0.22499 0.06155z" fill="#fff" stroke-linecap="round" stroke-width=".11906"/>
	<path d="m15.207 14.571-0.06155-0.22499-0.22779-0.05023 0.22499-0.06155 0.05023-0.22779 0.06155 0.22499 0.22779 0.05023-0.22499 0.06155z" fill="#fff" stroke-linecap="round" stroke-width=".11906"/>
	<path d="m13.544 15.637-0.04787-0.17499-0.17717-0.03906 0.17499-0.04787 0.03907-0.17717 0.04787 0.17499 0.17717 0.03906-0.17499 0.04787z" fill="#fff" stroke-linecap="round" stroke-width=".092605"/>
	<path d="m5.5654 13.528-0.04787-0.17499-0.17717-0.03906 0.17499-0.04787 0.039065-0.17717 0.04787 0.17499 0.17717 0.03906-0.17499 0.04787z" fill="#fff" stroke-linecap="round" stroke-width=".092605"/>
	<path d="m15.489 11.905-0.04787-0.17499-0.17717-0.03907 0.17499-0.04787 0.03906-0.17717 0.04787 0.17499 0.17717 0.03907-0.17499 0.04787z" fill="#fff" stroke-linecap="round" stroke-width=".092605"/>
	<path d="m3.7777 6.5654-0.04787-0.17499-0.17717-0.039065 0.17499-0.04787 0.039065-0.17717 0.04787 0.17499 0.17717 0.039065-0.17499 0.04787z" fill="#fff" stroke-linecap="round" stroke-width=".092605"/>
	<path d="m6.4766 14.25-0.061547-0.22499-0.22779-0.05023 0.22499-0.06155 0.050227-0.22779 0.061547 0.22499 0.22779 0.05023-0.22499 0.06155z" fill="#fff" stroke-linecap="round" stroke-width=".11906"/>
	<path d="m4.2184 12.337-0.061546-0.22499-0.22779-0.05023 0.22499-0.06155 0.050227-0.22779 0.061546 0.22499 0.22779 0.05023-0.22499 0.06155z" fill="#fff" stroke-linecap="round" stroke-width=".11906"/>
	<path d="m6.5706 12.682-0.061547-0.22499-0.22779-0.05023 0.22499-0.06155 0.050227-0.22779 0.061546 0.22499 0.22779 0.05023-0.22499 0.06155z" fill="#fff" stroke-linecap="round" stroke-width=".11906"/>
	<text x="3.0512869" y="11.076822" fill="#000000" font-family="sans-serif" font-size="3.3598px" letter-spacing="0px" stroke-width="0.17999" word-spacing="0px" style="line-height:1.25" xml:space="preserve" text-anchor="middle" id="text48"><tspan x="9.8971996" y="11.076822" fill="#ffffff" font-family="Poppins" font-weight="bold" stroke-width="0.17999" id="tspan46">GAMMA</tspan></text>
</svg>