<?xml version="1.0" encoding="UTF-8"?>
<svg width="75" height="75" version="1.1" viewBox="0 0 19.844 19.844" xml:space="preserve" xmlns="http://www.w3.org/2000/svg"><g transform="translate(-.0228 .38683)"><circle cx="9.9448" cy="9.5057" r="7.9375" fill="#005daa" stroke-linecap="round" stroke-width=".49236"/><g transform="translate(.17414)" font-family="sans-serif" font-size="26.012px" letter-spacing="0px" stroke-width="1.3935" word-spacing="0px"><text x="4.1827464" y="12.69498" fill="#4d4d4d" style="line-height:1.25" xml:space="preserve"><tspan x="4.1827464" y="12.69498" fill="#4d4d4d" font-family="Elephant" stroke-width="1.3935">γ</tspan></text><text x="4.0926704" y="12.573541" fill="#ef3e42" style="line-height:1.25" xml:space="preserve"><tspan x="4.0926704" y="12.573541" fill="#ef3e42" font-family="Elephant" stroke-width="1.3935">γ</tspan></text></g><path transform="matrix(.3875 0 0 .3875 6.1461 6.8541)" d="m1.6936-1.6623-0.27354-0.99995-1.0124-0.22323 0.99995-0.27354 0.22323-1.0124 0.27354 0.99995 1.0124 0.22323-0.99995 0.27354z" fill="#fff" stroke-linecap="round" stroke-width=".52917"/><path transform="matrix(.225 0 0 .225 5.3028 6.8663)" d="m1.6936-1.6623-0.27354-0.99995-1.0124-0.22323 0.99995-0.27354 0.22323-1.0124 0.27354 0.99995 1.0124 0.22323-0.99995 0.27354z" fill="#fff" stroke-linecap="round" stroke-width=".52917"/><path transform="matrix(.225 0 0 .225 5.5851 5.204)" d="m1.6936-1.6623-0.27354-0.99995-1.0124-0.22323 0.99995-0.27354 0.22323-1.0124 0.27354 0.99995 1.0124 0.22323-0.99995 0.27354z" fill="#fff" stroke-linecap="round" stroke-width=".52917"/><path transform="matrix(.225 0 0 .225 6.4946 7.9326)" d="m1.6936-1.6623-0.27354-0.99995-1.0124-0.22323 0.99995-0.27354 0.22323-1.0124 0.27354 0.99995 1.0124 0.22323-0.99995 0.27354z" fill="#fff" stroke-linecap="round" stroke-width=".52917"/><path transform="matrix(.225 0 0 .225 13.532 14.056)" d="m1.6936-1.6623-0.27354-0.99995-1.0124-0.22323 0.99995-0.27354 0.22323-1.0124 0.27354 0.99995 1.0124 0.22323-0.99995 0.27354z" fill="#fff" stroke-linecap="round" stroke-width=".52917"/><path transform="matrix(.225 0 0 .225 12.215 14.589)" d="m1.6936-1.6623-0.27354-0.99995-1.0124-0.22323 0.99995-0.27354 0.22323-1.0124 0.27354 0.99995 1.0124 0.22323-0.99995 0.27354z" fill="#fff" stroke-linecap="round" stroke-width=".52917"/><path transform="matrix(.225 0 0 .225 13.689 12.425)" d="m1.6936-1.6623-0.27354-0.99995-1.0124-0.22323 0.99995-0.27354 0.22323-1.0124 0.27354 0.99995 1.0124 0.22323-0.99995 0.27354z" fill="#fff" stroke-linecap="round" stroke-width=".52917"/><path transform="matrix(.225 0 0 .225 13.783 13.523)" d="m1.6936-1.6623-0.27354-0.99995-1.0124-0.22323 0.99995-0.27354 0.22323-1.0124 0.27354 0.99995 1.0124 0.22323-0.99995 0.27354z" fill="#fff" stroke-linecap="round" stroke-width=".52917"/><path transform="matrix(.225 0 0 .225 14.849 14.558)" d="m1.6936-1.6623-0.27354-0.99995-1.0124-0.22323 0.99995-0.27354 0.22323-1.0124 0.27354 0.99995 1.0124 0.22323-0.99995 0.27354z" fill="#fff" stroke-linecap="round" stroke-width=".52917"/><path transform="matrix(.175 0 0 .175 13.27 15.541)" d="m1.6936-1.6623-0.27354-0.99995-1.0124-0.22323 0.99995-0.27354 0.22323-1.0124 0.27354 0.99995 1.0124 0.22323-0.99995 0.27354z" fill="#fff" stroke-linecap="round" stroke-width=".52917"/><path transform="matrix(.175 0 0 .175 5.2918 13.432)" d="m1.6936-1.6623-0.27354-0.99995-1.0124-0.22323 0.99995-0.27354 0.22323-1.0124 0.27354 0.99995 1.0124 0.22323-0.99995 0.27354z" fill="#fff" stroke-linecap="round" stroke-width=".52917"/><path transform="matrix(.175 0 0 .175 15.215 11.809)" d="m1.6936-1.6623-0.27354-0.99995-1.0124-0.22323 0.99995-0.27354 0.22323-1.0124 0.27354 0.99995 1.0124 0.22323-0.99995 0.27354z" fill="#fff" stroke-linecap="round" stroke-width=".52917"/><path transform="matrix(.175 0 0 .175 3.5041 6.4695)" d="m1.6936-1.6623-0.27354-0.99995-1.0124-0.22323 0.99995-0.27354 0.22323-1.0124 0.27354 0.99995 1.0124 0.22323-0.99995 0.27354z" fill="#fff" stroke-linecap="round" stroke-width=".52917"/><path transform="matrix(.225 0 0 .225 6.1183 14.237)" d="m1.6936-1.6623-0.27354-0.99995-1.0124-0.22323 0.99995-0.27354 0.22323-1.0124 0.27354 0.99995 1.0124 0.22323-0.99995 0.27354z" fill="#fff" stroke-linecap="round" stroke-width=".52917"/><path transform="matrix(.225 0 0 .225 3.8601 12.324)" d="m1.6936-1.6623-0.27354-0.99995-1.0124-0.22323 0.99995-0.27354 0.22323-1.0124 0.27354 0.99995 1.0124 0.22323-0.99995 0.27354z" fill="#fff" stroke-linecap="round" stroke-width=".52917"/><path transform="matrix(.225 0 0 .225 6.2123 12.669)" d="m1.6936-1.6623-0.27354-0.99995-1.0124-0.22323 0.99995-0.27354 0.22323-1.0124 0.27354 0.99995 1.0124 0.22323-0.99995 0.27354z" fill="#fff" stroke-linecap="round" stroke-width=".52917"/><text x="3.0740869" y="10.689992" fill="#000000" font-family="sans-serif" font-size="3.3598px" letter-spacing="0px" stroke-width=".17999" word-spacing="0px" style="line-height:1.25" xml:space="preserve"><tspan x="3.0740869" y="10.689992" fill="#ffffff" font-family="Poppins" font-weight="bold" stroke-width=".17999">GAMMA</tspan></text></g></svg>
